# xmcd
#
# Track frame offsets: 
#        150
#        14081
#        29946
#        42527
#        58648
#        74959
#        90224
#        102149
#        117159
#        129301
#
# Disc length: 1933 seconds
#
# Revision: 0
# Processed by: cddbd v1.5.2PL0 Copyright (c) Steve Scherf et al.
# Submitted via: ExactAudioCopy v1.0b3
#
DISCID=90078b0a
DTITLE=Exile - Greatest Hits
DYEAR=1986
DGENRE=Country
TTITLE0=Woke Up In Love
TTITLE1=I Don't Want To Be A Memory
TTITLE2=Give Me One More Chance
TTITLE3=She's A Miracle
TTITLE4=Hang On To Your Heart
TTITLE5=The Girl Can't Help It
TTITLE6=I Could Get Used To You
TTITLE7=Crazy For Your Love
TTITLE8=Super Love
TTITLE9=Kiss You All Over
EXTD=
EXTT0=
EXTT1=
EXTT2=
EXTT3=
EXTT4=
EXTT5=
EXTT6=
EXTT7=
EXTT8=
EXTT9=
PLAYORDER=
